<svg xmlns="http://www.w3.org/2000/svg" viewBox="0 0 24 24">
    <circle cx="12" cy="12" r="12" fill="#1d1d1b"/>
    <path fill="#fff" d="M12 7.5h2.2c1.5.1 2.2.8 2.3 2.3v4.4c-.1 1.5-.8 2.2-2.3 2.3H9.8c-1.5-.1-2.2-.8-2.3-2.3V12 9.8c.1-1.5.8-2.2 2.3-2.3H12zm0-1H9.7c-2 .1-3.1 1.2-3.2 3.2v4.6c.1 2 1.2 3.1 3.2 3.2h4.6c2-.1 3.1-1.2 3.2-3.2V12 9.7c-.1-2-1.2-3.1-3.2-3.2H12zm0 2.7c-1.6 0-2.8 1.3-2.8 2.8s1.3 2.8 2.8 2.8 2.8-1.3 2.8-2.8c0-1.6-1.2-2.8-2.8-2.8zm0 4.6c-1 0-1.8-.8-1.8-1.8s.8-1.8 1.8-1.8 1.8.8 1.8 1.8-.8 1.8-1.8 1.8zm2.9-5.4c-.4 0-.7.3-.7.7s.3.7.7.7c.4 0 .7-.3.7-.7s-.3-.7-.7-.7z"/>
</svg>
