<?xml version="1.0" encoding="utf-8"?>
<!-- Generator: Adobe Illustrator 24.1.0, SVG Export Plug-In . SVG Version: 6.00 Build 0)  -->
<svg version="1.1" id="Layer_1" xmlns="http://www.w3.org/2000/svg" xmlns:xlink="http://www.w3.org/1999/xlink" x="0px" y="0px"
	 viewBox="0 0 24 24" style="enable-background:new 0 0 24 24;" xml:space="preserve">
<style type="text/css">
	.st0{fill:#3E3E3E;}
	.st1{fill:#FFFFFF;}
</style>
<circle class="st0" cx="12" cy="12" r="12"/>
<path class="st1" d="M12,7.5c1.5,0,1.6,0,2.2,0c1.5,0.1,2.2,0.8,2.3,2.3c0,0.6,0,0.8,0,2.2c0,1.5,0,1.6,0,2.2
	c-0.1,1.5-0.8,2.2-2.3,2.3c-0.6,0-0.8,0-2.2,0c-1.5,0-1.6,0-2.2,0c-1.5-0.1-2.2-0.8-2.3-2.3c0-0.6,0-0.8,0-2.2c0-1.5,0-1.6,0-2.2
	c0.1-1.5,0.8-2.2,2.3-2.3C10.4,7.5,10.5,7.5,12,7.5z M12,6.5c-1.5,0-1.7,0-2.3,0c-2,0.1-3.1,1.2-3.2,3.2c0,0.6,0,0.8,0,2.3
	s0,1.7,0,2.3c0.1,2,1.2,3.1,3.2,3.2c0.6,0,0.8,0,2.3,0s1.7,0,2.3,0c2-0.1,3.1-1.2,3.2-3.2c0-0.6,0-0.8,0-2.3s0-1.7,0-2.3
	c-0.1-2-1.2-3.1-3.2-3.2C13.7,6.5,13.5,6.5,12,6.5z M12,9.2c-1.6,0-2.8,1.3-2.8,2.8s1.3,2.8,2.8,2.8s2.8-1.3,2.8-2.8
	C14.8,10.4,13.6,9.2,12,9.2z M12,13.8c-1,0-1.8-0.8-1.8-1.8c0-1,0.8-1.8,1.8-1.8s1.8,0.8,1.8,1.8C13.8,13,13,13.8,12,13.8z
	 M14.9,8.4c-0.4,0-0.7,0.3-0.7,0.7s0.3,0.7,0.7,0.7c0.4,0,0.7-0.3,0.7-0.7S15.3,8.4,14.9,8.4z"/>
</svg>
